<svg width="315" height="315" viewBox="0 0 315 315" fill="none" xmlns="http://www.w3.org/2000/svg">
<path d="M312.5 157.5C312.5 200.468 298.796 239.198 272.673 267.163C246.575 295.1 207.892 312.5 157.5 312.5C107.108 312.5 68.4246 295.1 42.3269 267.163C16.2039 239.198 2.5 200.468 2.5 157.5C2.5 114.532 16.2039 75.8018 42.3269 47.8373C68.4246 19.8998 107.108 2.5 157.5 2.5C207.892 2.5 246.575 19.8998 272.673 47.8373C298.796 75.8018 312.5 114.532 312.5 157.5Z" fill="#171515" stroke="#A61D1C" stroke-width="5"/>
<path d="M40 170H99" stroke="white" stroke-width="1.5"/>
<path d="M58.0762 181.209C58.0762 180.817 57.8984 180.621 57.543 180.621H55.957C55.957 178.105 55.9844 176.602 56.0391 176.109C56.3854 176.091 56.7227 176.073 57.0508 176.055C57.707 176.018 58.3678 176 59.0332 176C59.6165 176 60.4368 176.018 61.4941 176.055L61.248 180.539C61.0658 180.548 60.8926 180.557 60.7285 180.566C60.5645 180.566 60.4049 180.566 60.25 180.566H59.8398C59.6211 180.566 59.4434 180.644 59.3066 180.799C59.179 180.954 59.1152 181.173 59.1152 181.455C59.1152 181.455 59.0788 184.837 59.0059 191.6C59.0059 192.028 59.1836 192.242 59.5391 192.242H61.4121L61.248 196.945C60.2728 196.973 59.5026 196.995 58.9375 197.014C58.3815 197.032 57.9395 197.046 57.6113 197.055C57.2832 197.064 56.987 197.073 56.7227 197.082C56.1758 197.1 55.834 197.109 55.6973 197.109L55.7246 195.195V192.16H57.5156C57.8346 192.16 57.9941 191.973 57.9941 191.6L58.0625 183.041L58.0762 181.209ZM63.5586 192.42L64.5156 192.406C64.8529 192.406 65.0215 192.156 65.0215 191.654V180.895C65.0215 180.74 64.9896 180.644 64.9258 180.607C64.8711 180.562 64.7435 180.539 64.543 180.539H62.8887V176H65.6367C65.9375 176 66.1107 176.064 66.1562 176.191C66.2018 176.31 66.2428 176.424 66.2793 176.533L71.0918 191.955L71.2422 191.9C71.2604 189.977 71.2741 188.464 71.2832 187.361C71.3014 186.258 71.3105 185.388 71.3105 184.75C71.3197 184.103 71.3242 183.52 71.3242 183C71.3333 182.48 71.3379 182.048 71.3379 181.701C71.347 181.355 71.3516 181.145 71.3516 181.072C71.3516 180.662 71.1009 180.457 70.5996 180.457L69.6699 180.471C69.515 180.48 69.3737 180.484 69.2461 180.484L69.0547 176.055C70.4401 176.018 71.2878 176 71.5977 176H74.4004L74.2363 180.457C74.0632 180.457 73.8991 180.452 73.7441 180.443L73.0059 180.43C72.5775 180.43 72.3633 180.662 72.3633 181.127L72.1309 196.836C72.1309 197.055 72.0579 197.164 71.9121 197.164C71.7389 197.164 71.6159 197.055 71.543 196.836L66.416 180.539C66.3887 180.402 66.3203 180.339 66.2109 180.348C66.1107 180.366 66.0605 180.43 66.0605 180.539V191.367C66.0605 191.969 66.293 192.27 66.7578 192.27H68.1797L68.3574 197.027L62.834 196.973V192.434C63.0892 192.434 63.3307 192.429 63.5586 192.42ZM77.1758 180.512C76.6836 180.512 76.4375 180.808 76.4375 181.4V184.285H75.4941V176.082C77.8457 176.027 80.8672 176 84.5586 176V183.861L83.6152 183.834V181.236C83.6152 180.771 83.4603 180.512 83.1504 180.457C83.0501 180.439 82.9408 180.43 82.8223 180.43H80.7578C80.5846 180.43 80.498 180.53 80.498 180.73C80.498 180.73 80.498 180.899 80.498 181.236L80.4434 191.34V191.9C80.4434 192.055 80.4798 192.156 80.5527 192.201C80.6257 192.247 80.7487 192.27 80.9219 192.27H82.6035V197H77.2852L77.3125 192.324C77.5859 192.324 77.8411 192.32 78.0781 192.311L79.0488 192.297C79.304 192.297 79.4316 192.101 79.4316 191.709V180.84C79.4316 180.621 79.3314 180.512 79.1309 180.512H77.1758Z" fill="white"/>
<path d="M14.5 157C14.5 187.1 38.9005 211.5 69 211.5C99.0995 211.5 123.5 187.1 123.5 157C123.5 126.9 99.0995 102.5 69 102.5C38.9005 102.5 14.5 126.9 14.5 157Z" stroke="#A61D1C" stroke-width="3"/>
<path d="M128 259H187" stroke="white" stroke-width="1.5"/>
<path d="M144.039 281.488L143.984 270.031V268.637C143.984 266.923 144.723 265.798 146.199 265.26C146.682 265.087 147.202 265 147.758 265H149.193C150.023 265 150.715 265.237 151.271 265.711C151.581 265.984 151.809 266.262 151.955 266.545L151.9 265.055H152.967L152.912 273.039L151.955 273.094V271.521C151.955 270.929 151.782 270.46 151.436 270.113C151.089 269.767 150.592 269.594 149.945 269.594L147.197 269.566C146.186 269.566 145.507 269.972 145.16 270.783C145.042 271.048 144.982 271.348 144.982 271.686L145.051 279.273C145.051 280.422 145.452 281.083 146.254 281.256C146.473 281.301 146.687 281.324 146.896 281.324H150.137C150.711 281.324 151.158 281.183 151.477 280.9C151.796 280.609 151.955 280.244 151.955 279.807L151.969 278.809C151.969 278.471 151.946 277.938 151.9 277.209L152.885 277.127C152.885 277.601 152.889 278.116 152.898 278.672L152.912 282.227C152.912 284.113 152.361 285.289 151.258 285.754C150.911 285.9 150.565 285.973 150.219 285.973H149.48L148.879 285.986L148.031 286H147.115C145.064 286 144.039 284.833 144.039 282.5V281.488ZM156.904 270.018C156.904 269.735 156.699 269.594 156.289 269.594H155.934C155.751 269.594 155.551 269.594 155.332 269.594C155.113 269.585 154.863 269.576 154.58 269.566V265.027C155.373 265.027 156.02 265.027 156.521 265.027C157.032 265.018 157.447 265.014 157.766 265.014L159.543 265H160.24C162.519 265 163.954 266.126 164.547 268.377C164.702 268.969 164.779 269.626 164.779 270.346C164.779 271.066 164.72 271.654 164.602 272.109C164.483 272.565 164.324 272.957 164.123 273.285C163.932 273.613 163.713 273.882 163.467 274.092C163.221 274.292 162.97 274.452 162.715 274.57C162.277 274.789 161.817 274.921 161.334 274.967V275.049C161.781 275.176 162.141 275.441 162.414 275.842C162.697 276.234 162.838 276.726 162.838 277.318V280.955C162.838 281.219 162.906 281.415 163.043 281.543C163.18 281.661 163.339 281.721 163.521 281.721C163.704 281.721 163.859 281.643 163.986 281.488C164.123 281.324 164.191 281.156 164.191 280.982C164.191 280.982 164.191 280.768 164.191 280.34C164.191 280.085 164.191 279.816 164.191 279.533C164.201 279.251 164.21 278.932 164.219 278.576L165.162 278.549V283.566C165.162 284.742 164.907 285.535 164.396 285.945C164.169 286.128 163.854 286.219 163.453 286.219C162.441 286.219 161.885 285.631 161.785 284.455C161.758 284.127 161.744 283.803 161.744 283.484L161.84 277.428C161.84 276.644 161.562 276.056 161.006 275.664C160.605 275.391 160.181 275.254 159.734 275.254H158.312C158.139 275.254 158.053 275.336 158.053 275.5V275.91L158.025 280.244V280.736C158.025 281.11 158.185 281.297 158.504 281.297H160.186L160.158 285.945L154.607 286.027V281.297H156.371C156.763 281.297 156.959 281.064 156.959 280.6V280.066L156.904 270.551V270.018ZM158.367 269.566C158.121 269.566 157.998 269.717 157.998 270.018C157.998 270.1 157.993 270.323 157.984 270.688C157.984 271.043 157.984 271.48 157.984 272L157.971 273.258V273.982C157.971 274.156 158.053 274.242 158.217 274.242L159.352 274.256L161.02 274.27C162.013 274.27 162.733 273.859 163.18 273.039C163.344 272.738 163.426 272.365 163.426 271.918C163.426 271.462 163.353 271.089 163.207 270.797C163.07 270.496 162.902 270.259 162.701 270.086C162.337 269.758 161.954 269.594 161.553 269.594L158.367 269.566ZM175.881 276.676C175.507 276.676 175.32 276.899 175.32 277.346V286H174.309C174.318 285.918 174.322 285.818 174.322 285.699V284.934C174.322 284.806 174.327 284.697 174.336 284.605C174.281 284.715 174.208 284.856 174.117 285.029C174.035 285.193 173.88 285.357 173.652 285.521C173.096 285.913 172.299 286.109 171.26 286.109C170.221 286.109 169.455 286.068 168.963 285.986C168.471 285.904 168.079 285.745 167.787 285.508C167.268 285.07 167.008 284.132 167.008 282.691V268.336C167.008 266.923 167.345 265.975 168.02 265.492C168.603 265.055 169.646 264.836 171.15 264.836C172.417 264.836 173.347 265.146 173.939 265.766C174.076 265.902 174.181 266.012 174.254 266.094V265L175.238 265.027V272.219H174.281V270.318C174.281 269.644 173.889 269.307 173.105 269.307H169.305C168.548 269.307 168.129 269.539 168.047 270.004C168.02 270.122 168.006 270.236 168.006 270.346V280.203C168.006 280.641 168.092 280.923 168.266 281.051C168.512 281.215 168.84 281.297 169.25 281.297H173.393C174.04 281.297 174.363 280.969 174.363 280.312V277.373C174.363 277.054 174.318 276.854 174.227 276.771C174.09 276.671 173.83 276.621 173.447 276.621H171.424V275.609H176.332V276.676H175.881Z" fill="white"/>
<path d="M102.5 246C102.5 276.1 126.9 300.5 157 300.5C187.1 300.5 211.5 276.1 211.5 246C211.5 215.9 187.1 191.5 157 191.5C126.9 191.5 102.5 215.9 102.5 246Z" stroke="#A61D1C" stroke-width="3"/>
<path d="M220 170H279" stroke="white" stroke-width="1.5"/>
<path d="M245.254 180.512C243.978 180.548 243.331 180.566 243.312 180.566C243.176 180.566 243.121 180.648 243.148 180.812C243.148 180.858 243.148 180.895 243.148 180.922C243.148 180.94 243.176 181.104 243.23 181.414C243.285 181.724 243.354 182.13 243.436 182.631C243.527 183.132 243.627 183.702 243.736 184.34C243.855 184.978 243.973 185.63 244.092 186.295C244.21 186.96 244.329 187.617 244.447 188.264C244.566 188.911 244.671 189.49 244.762 190C244.999 191.331 245.149 192.064 245.213 192.201C245.277 192.338 245.4 192.406 245.582 192.406H246.648L246.703 197.055L241.686 196.945L241.631 192.379H243.285C243.513 192.379 243.682 192.292 243.791 192.119C243.9 191.937 243.946 191.8 243.928 191.709C243.919 191.609 243.891 191.436 243.846 191.189C243.809 190.934 243.755 190.606 243.682 190.205C243.618 189.795 243.54 189.33 243.449 188.811C243.367 188.282 243.276 187.735 243.176 187.17H239.334L238.418 191.627C238.345 191.937 238.327 192.156 238.363 192.283C238.4 192.402 238.5 192.461 238.664 192.461H240.236L240.182 197.027H235.137L235.246 192.406H236.395C236.868 192.406 237.142 192.247 237.215 191.928C237.26 191.745 237.365 191.281 237.529 190.533C237.693 189.777 237.844 189.084 237.98 188.455C238.126 187.817 238.272 187.17 238.418 186.514C238.564 185.848 238.705 185.197 238.842 184.559C238.988 183.921 239.115 183.346 239.225 182.836C239.343 182.316 239.439 181.888 239.512 181.551C239.585 181.204 239.63 180.981 239.648 180.881C239.694 180.689 239.598 180.594 239.361 180.594H237.721L237.666 176L245.227 176.055L245.254 180.512ZM239.539 186.186L243.012 186.158C242.893 185.484 242.784 184.827 242.684 184.189C242.31 181.956 242.091 180.794 242.027 180.703C241.973 180.612 241.891 180.566 241.781 180.566H240.961C240.797 180.566 240.697 180.658 240.66 180.84L239.539 186.186ZM256.779 187.676C256.406 187.676 256.219 187.899 256.219 188.346V197H255.207C255.216 196.918 255.221 196.818 255.221 196.699V195.934C255.221 195.806 255.225 195.697 255.234 195.605C255.18 195.715 255.107 195.856 255.016 196.029C254.934 196.193 254.779 196.357 254.551 196.521C253.995 196.913 253.197 197.109 252.158 197.109C251.119 197.109 250.354 197.068 249.861 196.986C249.369 196.904 248.977 196.745 248.686 196.508C248.166 196.07 247.906 195.132 247.906 193.691V179.336C247.906 177.923 248.243 176.975 248.918 176.492C249.501 176.055 250.545 175.836 252.049 175.836C253.316 175.836 254.245 176.146 254.838 176.766C254.975 176.902 255.079 177.012 255.152 177.094V176L256.137 176.027V183.219H255.18V181.318C255.18 180.644 254.788 180.307 254.004 180.307H250.203C249.447 180.307 249.027 180.539 248.945 181.004C248.918 181.122 248.904 181.236 248.904 181.346V191.203C248.904 191.641 248.991 191.923 249.164 192.051C249.41 192.215 249.738 192.297 250.148 192.297H254.291C254.938 192.297 255.262 191.969 255.262 191.312V188.373C255.262 188.054 255.216 187.854 255.125 187.771C254.988 187.671 254.729 187.621 254.346 187.621H252.322V186.609H257.23V187.676H256.779ZM260.58 181.209C260.58 180.817 260.402 180.621 260.047 180.621H258.461C258.461 178.105 258.488 176.602 258.543 176.109C258.889 176.091 259.227 176.073 259.555 176.055C260.211 176.018 260.872 176 261.537 176C262.12 176 262.941 176.018 263.998 176.055L263.752 180.539C263.57 180.548 263.396 180.557 263.232 180.566C263.068 180.566 262.909 180.566 262.754 180.566H262.344C262.125 180.566 261.947 180.644 261.811 180.799C261.683 180.954 261.619 181.173 261.619 181.455C261.619 181.455 261.583 184.837 261.51 191.6C261.51 192.028 261.688 192.242 262.043 192.242H263.916L263.752 196.945C262.777 196.973 262.007 196.995 261.441 197.014C260.885 197.032 260.443 197.046 260.115 197.055C259.787 197.064 259.491 197.073 259.227 197.082C258.68 197.1 258.338 197.109 258.201 197.109L258.229 195.195V192.16H260.02C260.339 192.16 260.498 191.973 260.498 191.6L260.566 183.041L260.58 181.209Z" fill="white"/>
<path d="M194.5 157C194.5 187.1 218.9 211.5 249 211.5C279.1 211.5 303.5 187.1 303.5 157C303.5 126.9 279.1 102.5 249 102.5C218.9 102.5 194.5 126.9 194.5 157Z" stroke="#A61D1C" stroke-width="3"/>
<path d="M126 79H185" stroke="white" stroke-width="1.5"/>
<path d="M144.158 89.8672C144.158 89.6667 144.072 89.5664 143.898 89.5664C143.816 89.5664 143.01 89.5846 141.479 89.6211L141.561 85.082C142.308 85.0729 143.019 85.0592 143.693 85.041L146.77 85H150.967C151.021 87.2969 151.049 88.4909 151.049 88.582L151.035 91.5625C151.026 92.1458 151.021 92.7474 151.021 93.3672L150.105 93.2852C150.105 93.1029 150.11 92.9069 150.119 92.6973C150.128 92.4785 150.133 92.237 150.133 91.9727C150.142 91.7083 150.151 91.3574 150.16 90.9199C150.169 90.4733 150.019 90.127 149.709 89.8809C149.408 89.6348 148.998 89.5117 148.479 89.5117L147.508 89.5254L146.25 89.5527L145.539 89.5664C145.311 89.5664 145.197 89.6667 145.197 89.8672L145.033 94.5156C145.033 94.6341 145.124 94.6934 145.307 94.6934L147.098 94.6387C147.435 94.6387 147.604 94.4108 147.604 93.9551C147.604 93.7454 147.608 93.513 147.617 93.2578C147.635 92.9935 147.649 92.752 147.658 92.5332L148.643 92.5059L148.396 98.043L147.439 98.1387C147.512 96.6803 147.549 95.9421 147.549 95.9238C147.549 95.7142 147.398 95.6094 147.098 95.6094L146.25 95.623L145.225 95.6367C145.097 95.6367 145.033 95.7324 145.033 95.9238L144.924 100.545C144.924 101.046 145.211 101.297 145.785 101.297L147.809 101.379L147.781 106.027L141.588 105.973L141.67 101.297C141.962 101.288 142.221 101.279 142.449 101.27C142.887 101.251 143.206 101.242 143.406 101.242C143.798 101.242 143.994 101.083 143.994 100.764L144.158 89.8672ZM154.686 90.209C154.686 89.8171 154.508 89.6211 154.152 89.6211H152.566C152.566 87.1055 152.594 85.6016 152.648 85.1094C152.995 85.0911 153.332 85.0729 153.66 85.0547C154.316 85.0182 154.977 85 155.643 85C156.226 85 157.046 85.0182 158.104 85.0547L157.857 89.5391C157.675 89.5482 157.502 89.5573 157.338 89.5664C157.174 89.5664 157.014 89.5664 156.859 89.5664H156.449C156.23 89.5664 156.053 89.6439 155.916 89.7988C155.788 89.9538 155.725 90.1725 155.725 90.4551C155.725 90.4551 155.688 93.8366 155.615 100.6C155.615 101.028 155.793 101.242 156.148 101.242H158.021L157.857 105.945C156.882 105.973 156.112 105.995 155.547 106.014C154.991 106.032 154.549 106.046 154.221 106.055C153.893 106.064 153.596 106.073 153.332 106.082C152.785 106.1 152.443 106.109 152.307 106.109L152.334 104.195V101.16H154.125C154.444 101.16 154.604 100.973 154.604 100.6L154.672 92.041L154.686 90.209ZM159.881 90.9062L159.895 88.1309C159.895 86.2715 160.706 85.2279 162.328 85C162.793 84.9271 163.294 84.8906 163.832 84.8906C164.707 84.8906 165.454 85.0775 166.074 85.4512C166.339 85.6152 166.548 85.8021 166.703 86.0117H166.812V85H167.879L167.824 92.3965H166.84V90.6602C166.84 90.25 166.717 89.931 166.471 89.7031C166.234 89.4753 165.883 89.3613 165.418 89.3613H162.328C161.936 89.3613 161.604 89.4753 161.33 89.7031C161.066 89.931 160.934 90.2546 160.934 90.6738C160.934 91.0931 160.924 91.5078 160.906 91.918C160.888 92.319 160.883 92.7064 160.893 93.0801C160.911 93.4538 160.956 93.7409 161.029 93.9414C161.102 94.1328 161.207 94.2786 161.344 94.3789C161.562 94.5521 161.995 94.6387 162.643 94.6387H165.213C166.234 94.6387 167.04 95.0124 167.633 95.7598C168.134 96.3978 168.385 97.168 168.385 98.0703V102.582C168.385 103.867 168.079 104.77 167.469 105.289C166.822 105.836 165.696 106.109 164.092 106.109C162.524 106.109 161.394 105.599 160.701 104.578H160.537V106H159.525L159.73 97.3184L160.674 97.3457C160.665 97.765 160.656 98.1615 160.646 98.5352C160.646 98.9089 160.646 99.2826 160.646 99.6562V100.627C160.646 101.165 160.715 101.502 160.852 101.639C161.061 101.857 161.367 101.967 161.768 101.967L163.463 101.98L165.855 101.994C166.712 101.994 167.195 101.652 167.305 100.969C167.332 100.759 167.346 100.522 167.346 100.258V98.2207C167.346 96.6165 166.493 95.8145 164.789 95.8145H162.697C161.85 95.8145 161.262 95.7096 160.934 95.5C160.223 95.0352 159.867 94.1283 159.867 92.7793L159.881 90.9062Z" fill="white"/>
<path d="M100.5 66C100.5 96.0995 124.9 120.5 155 120.5C185.1 120.5 209.5 96.0995 209.5 66C209.5 35.9005 185.1 11.5 155 11.5C124.9 11.5 100.5 35.9005 100.5 66Z" stroke="#A61D1C" stroke-width="3"/>
</svg>
